# xmcd CD database file
#
# Track frame offsets:
#	150
#	16050
#	36727
#	43252
#	52759
#	77720
#	91748
#	105423
#	109377
#	123289
#	129416
#	141210
#	144388
#	146788
#	149272
#	151090
#	157942
#	180006
#	200318
#
# Disc length: 2919 seconds
#
# Revision: 1
# Processed by: cddbd v1.5.2PL0 Copyright (c) Steve Scherf et al.
# Submitted via: CDex 1.51
#
DISCID=f60b6513
DTITLE=Big Mike Griffin - Iron City Blues - Original Motion Picture Soundtrack
DYEAR=2008
DGENRE=Blues
TTITLE0=Big Mike Griffin - Iron City
TTITLE1=Big Mike Griffin - Livin' Large
TTITLE2=Big Mike Griffin - Catfish and Chrome
TTITLE3=Big Mike Griffin - Jason Neese's Theme
TTITLE4=Big Mike Griffin - Two Lane Road
TTITLE5=Big Mike Griffin - Mowers and 4-Wheelers
TTITLE6=Big Mike Griffin - Iron City Park
TTITLE7=Big Mike Griffin - City History
TTITLE8=Big Mike Griffin - Mayor's Outlook
TTITLE9=Big Mike Griffin - Down in the Bottom (Insurance Bluff)
TTITLE10=Big Mike Griffin - Monkey's Theme
TTITLE11=Big Mike Griffin - A Dark Reality
TTITLE12=Big Mike Griffin - Holly Creek Shuffle
TTITLE13=Big Mike Griffin - Return to Nashville
TTITLE14=Big Mike Griffin - Mike's A-Team
TTITLE15=Big Mike Griffin - Blues Jam
TTITLE16=Big Mike Griffin - Shovel Head
TTITLE17=Big Mike Griffin - To Meet the Blues
TTITLE18=Big Mike Griffin - Shoal Creek
EXTD=YEAR: 2008
EXTT0=
EXTT1=
EXTT2=
EXTT3=
EXTT4=
EXTT5=
EXTT6=
EXTT7=
EXTT8=
EXTT9=
EXTT10=
EXTT11=
EXTT12=
EXTT13=
EXTT14=
EXTT15=
EXTT16=
EXTT17=
EXTT18=
PLAYORDER=
